<svg xmlns="http://www.w3.org/2000/svg" viewBox="0 0 760 340" font-family="Segoe UI, Helvetica, Arial, sans-serif"><rect width="760" height="340" fill="#ffffff"/><text x="56" y="26" font-size="16" font-weight="700" fill="#1f2937">Same data on a log scale: two populations</text><text x="56" y="45" font-size="11" fill="#6b7280">A 2-component log-normal mixture (hand-written EM) separates light and heavy SIMs</text><rect x="56.0" y="284.2" width="13.8" height="3.8" fill="#cbd5e1" opacity="0.8"/><rect x="70.8" y="283.4" width="13.8" height="4.6" fill="#cbd5e1" opacity="0.8"/><rect x="85.6" y="269.8" width="13.8" height="18.2" fill="#cbd5e1" opacity="0.8"/><rect x="100.3" y="259.9" width="13.8" height="28.1" fill="#cbd5e1" opacity="0.8"/><rect x="115.1" y="250.1" width="13.8" height="37.9" fill="#cbd5e1" opacity="0.8"/><rect x="129.9" y="222.0" width="13.8" height="66.0" fill="#cbd5e1" opacity="0.8"/><rect x="144.7" y="206.8" width="13.8" height="81.2" fill="#cbd5e1" opacity="0.8"/><rect x="159.5" y="178.7" width="13.8" height="109.3" fill="#cbd5e1" opacity="0.8"/><rect x="174.3" y="150.7" width="13.8" height="137.3" fill="#cbd5e1" opacity="0.8"/><rect x="189.0" y="112.7" width="13.8" height="175.3" fill="#cbd5e1" opacity="0.8"/><rect x="203.8" y="115.8" width="13.8" height="172.2" fill="#cbd5e1" opacity="0.8"/><rect x="218.6" y="96.0" width="13.8" height="192.0" fill="#cbd5e1" opacity="0.8"/><rect x="233.4" y="80.9" width="13.8" height="207.1" fill="#cbd5e1" opacity="0.8"/><rect x="248.2" y="110.4" width="13.8" height="177.6" fill="#cbd5e1" opacity="0.8"/><rect x="263.0" y="115.0" width="13.8" height="173.0" fill="#cbd5e1" opacity="0.8"/><rect x="277.7" y="165.1" width="13.8" height="122.9" fill="#cbd5e1" opacity="0.8"/><rect x="292.5" y="187.1" width="13.8" height="100.9" fill="#cbd5e1" opacity="0.8"/><rect x="307.3" y="205.3" width="13.8" height="82.7" fill="#cbd5e1" opacity="0.8"/><rect x="322.1" y="229.6" width="13.8" height="58.4" fill="#cbd5e1" opacity="0.8"/><rect x="336.9" y="253.1" width="13.8" height="34.9" fill="#cbd5e1" opacity="0.8"/><rect x="351.7" y="263.7" width="13.8" height="24.3" fill="#cbd5e1" opacity="0.8"/><rect x="366.4" y="276.6" width="13.8" height="11.4" fill="#cbd5e1" opacity="0.8"/><rect x="381.2" y="282.7" width="13.8" height="5.3" fill="#cbd5e1" opacity="0.8"/><rect x="396.0" y="283.4" width="13.8" height="4.6" fill="#cbd5e1" opacity="0.8"/><rect x="410.8" y="286.5" width="13.8" height="1.5" fill="#cbd5e1" opacity="0.8"/><rect x="425.6" y="287.2" width="13.8" height="0.8" fill="#cbd5e1" opacity="0.8"/><rect x="440.3" y="287.2" width="13.8" height="0.8" fill="#cbd5e1" opacity="0.8"/><rect x="455.1" y="288.0" width="13.8" height="0.0" fill="#cbd5e1" opacity="0.8"/><rect x="469.9" y="288.0" width="13.8" height="0.0" fill="#cbd5e1" opacity="0.8"/><rect x="484.7" y="288.0" width="13.8" height="0.0" fill="#cbd5e1" opacity="0.8"/><rect x="499.5" y="288.0" width="13.8" height="0.0" fill="#cbd5e1" opacity="0.8"/><rect x="514.3" y="288.0" width="13.8" height="0.0" fill="#cbd5e1" opacity="0.8"/><rect x="529.0" y="286.5" width="13.8" height="1.5" fill="#cbd5e1" opacity="0.8"/><rect x="543.8" y="287.2" width="13.8" height="0.8" fill="#cbd5e1" opacity="0.8"/><rect x="558.6" y="285.0" width="13.8" height="3.0" fill="#cbd5e1" opacity="0.8"/><rect x="573.4" y="272.1" width="13.8" height="15.9" fill="#cbd5e1" opacity="0.8"/><rect x="588.2" y="264.5" width="13.8" height="23.5" fill="#cbd5e1" opacity="0.8"/><rect x="603.0" y="246.3" width="13.8" height="41.7" fill="#cbd5e1" opacity="0.8"/><rect x="617.7" y="237.2" width="13.8" height="50.8" fill="#cbd5e1" opacity="0.8"/><rect x="632.5" y="217.4" width="13.8" height="70.6" fill="#cbd5e1" opacity="0.8"/><rect x="647.3" y="218.2" width="13.8" height="69.8" fill="#cbd5e1" opacity="0.8"/><rect x="662.1" y="207.6" width="13.8" height="80.4" fill="#cbd5e1" opacity="0.8"/><rect x="676.9" y="234.1" width="13.8" height="53.9" fill="#cbd5e1" opacity="0.8"/><rect x="691.7" y="256.9" width="13.8" height="31.1" fill="#cbd5e1" opacity="0.8"/><rect x="706.4" y="267.5" width="13.8" height="20.5" fill="#cbd5e1" opacity="0.8"/><rect x="721.2" y="277.4" width="13.8" height="10.6" fill="#cbd5e1" opacity="0.8"/><line x1="56.0" y1="56" x2="56.0" y2="288" stroke="#e5e7eb"/><text x="56.0" y="306.0" font-size="10" text-anchor="middle" fill="#6b7280">0.1 MB</text><line x1="214.1" y1="56" x2="214.1" y2="288" stroke="#e5e7eb"/><text x="214.1" y="306.0" font-size="10" text-anchor="middle" fill="#6b7280">1 MB</text><line x1="372.3" y1="56" x2="372.3" y2="288" stroke="#e5e7eb"/><text x="372.3" y="306.0" font-size="10" text-anchor="middle" fill="#6b7280">10 MB</text><line x1="530.4" y1="56" x2="530.4" y2="288" stroke="#e5e7eb"/><text x="530.4" y="306.0" font-size="10" text-anchor="middle" fill="#6b7280">100 MB</text><line x1="688.6" y1="56" x2="688.6" y2="288" stroke="#e5e7eb"/><text x="688.6" y="306.0" font-size="10" text-anchor="middle" fill="#6b7280">1 GB</text><polyline points="56.0,284.8 84.5,277.0 112.9,258.0 141.4,221.8 169.8,170.3 198.3,119.3 226.7,93.2 255.2,106.8 283.6,152.1 312.1,205.9 340.5,248.1 369.0,272.3 397.4,283.1 425.9,286.7 454.3,287.7 482.8,288.0 736.0,288.0" fill="none" stroke="#2563eb" stroke-width="2.4"/><polyline points="503.0,288.0 531.1,288.0 559.6,284.6 588.1,271.2 616.5,241.1 645.0,214.4 673.4,223.3 701.9,256.0 730.3,279.1 736.0,281.6" fill="none" stroke="#dc2626" stroke-width="2.4"/><line x1="558.3" y1="56" x2="558.3" y2="288" stroke="#b45309" stroke-width="1.6" stroke-dasharray="5 4"/><text x="552.3" y="70" font-size="10" text-anchor="end" fill="#b45309" font-weight="600">150 MB pool limit</text><text x="231.4" y="84.6" font-size="11" text-anchor="middle" fill="#2563eb" font-weight="700">Light ~1 MB (81%)</text><text x="652.9" y="204.8" font-size="11" text-anchor="middle" fill="#dc2626" font-weight="700">Heavy ~595 MB (19%)</text><line x1="56" y1="288" x2="736" y2="288" stroke="#1f2937"/></svg>
