<svg xmlns="http://www.w3.org/2000/svg" viewBox="0 0 360 300" font-family="Segoe UI, Helvetica, Arial, sans-serif"><rect width="360" height="300" fill="#ffffff"/><text x="48" y="24" font-size="14" font-weight="700" fill="#1f2937">Raw usage (linear scale)</text><text x="48" y="42" font-size="11" fill="#6b7280">One tall spike + a long invisible tail</text><rect x="48.0" y="52.0" width="11.3" height="208.0" fill="#cbd5e1"/><rect x="60.3" y="259.9" width="11.3" height="0.1" fill="#cbd5e1"/><rect x="72.7" y="259.8" width="11.3" height="0.2" fill="#cbd5e1"/><rect x="85.0" y="258.5" width="11.3" height="1.5" fill="#cbd5e1"/><rect x="97.3" y="258.1" width="11.3" height="1.9" fill="#cbd5e1"/><rect x="109.7" y="257.3" width="11.3" height="2.7" fill="#cbd5e1"/><rect x="122.0" y="257.3" width="11.3" height="2.7" fill="#cbd5e1"/><rect x="134.3" y="256.6" width="11.3" height="3.4" fill="#cbd5e1"/><rect x="146.7" y="256.7" width="11.3" height="3.3" fill="#cbd5e1"/><rect x="159.0" y="257.5" width="11.3" height="2.5" fill="#cbd5e1"/><rect x="171.3" y="257.3" width="11.3" height="2.7" fill="#cbd5e1"/><rect x="183.7" y="258.1" width="11.3" height="1.9" fill="#cbd5e1"/><rect x="196.0" y="257.5" width="11.3" height="2.5" fill="#cbd5e1"/><rect x="208.3" y="257.8" width="11.3" height="2.2" fill="#cbd5e1"/><rect x="220.7" y="257.9" width="11.3" height="2.1" fill="#cbd5e1"/><rect x="233.0" y="258.7" width="11.3" height="1.3" fill="#cbd5e1"/><rect x="245.3" y="258.9" width="11.3" height="1.1" fill="#cbd5e1"/><rect x="257.7" y="258.8" width="11.3" height="1.2" fill="#cbd5e1"/><rect x="270.0" y="258.8" width="11.3" height="1.2" fill="#cbd5e1"/><rect x="282.3" y="259.4" width="11.3" height="0.6" fill="#cbd5e1"/><rect x="294.7" y="259.8" width="11.3" height="0.2" fill="#cbd5e1"/><rect x="307.0" y="259.1" width="11.3" height="0.9" fill="#cbd5e1"/><rect x="319.3" y="259.7" width="11.3" height="0.3" fill="#cbd5e1"/><rect x="331.7" y="259.6" width="11.3" height="0.4" fill="#cbd5e1"/><line x1="48" y1="260" x2="344" y2="260" stroke="#1f2937"/><text x="48" y="288" font-size="10" fill="#6b7280">0 MB</text><text x="344" y="288" font-size="10" text-anchor="end" fill="#6b7280">high</text><text x="196.0" y="156.0" font-size="11" text-anchor="middle" fill="#6b7280">long tail hides here</text></svg>
